<svg width="33" height="24" viewBox="0 0 33 24" fill="none" xmlns="http://www.w3.org/2000/svg">
<path d="M23.2625 23.44C21.5558 23.44 20.0625 22.8533 18.7825 21.68C17.5025 20.5067 16.8625 18.8533 16.8625 16.72C16.8625 12.9333 18.1158 9.6 20.6225 6.72C23.1292 3.84 26.9692 1.89333 32.1425 0.879996L31.7425 4.48C29.0225 5.06666 26.9692 5.94666 25.5825 7.12C24.1958 8.24 23.5025 9.57333 23.5025 11.12C23.5025 11.8667 23.7425 12.48 24.2225 12.96C24.7558 13.44 25.3425 13.8933 25.9825 14.32C26.6758 14.7467 27.2625 15.28 27.7425 15.92C28.2758 16.56 28.5425 17.4133 28.5425 18.48C28.5425 20.08 28.0092 21.3067 26.9425 22.16C25.9292 23.0133 24.7025 23.44 23.2625 23.44ZM7.1025 23.44C5.3425 23.44 3.8225 22.8533 2.5425 21.68C1.2625 20.5067 0.622501 18.8533 0.622501 16.72C0.622501 12.9333 1.87583 9.6 4.3825 6.72C6.9425 3.84 10.8092 1.89333 15.9825 0.879996L15.5025 4.48C12.8358 5.06666 10.8092 5.94666 9.4225 7.12C8.03583 8.24 7.3425 9.57333 7.3425 11.12C7.3425 11.8667 7.5825 12.48 8.0625 12.96C8.59583 13.44 9.1825 13.8933 9.8225 14.32C10.4625 14.7467 11.0225 15.28 11.5025 15.92C12.0358 16.56 12.3025 17.4133 12.3025 18.48C12.3025 20.08 11.7958 21.3067 10.7825 22.16C9.76917 23.0133 8.5425 23.44 7.1025 23.44Z" fill="black"/>
</svg>
