<svg width="33" height="24" viewBox="0 0 33 24" fill="none" xmlns="http://www.w3.org/2000/svg">
<path d="M16.9425 23.44L17.4225 19.84C20.0892 19.2533 22.1158 18.4 23.5025 17.28C24.8892 16.1067 25.5825 14.72 25.5825 13.12C25.5825 12.3733 25.3158 11.7867 24.7825 11.36C24.3025 10.88 23.7425 10.4267 23.1025 10C22.4625 9.52 21.8758 8.98667 21.3425 8.4C20.8092 7.76 20.5425 6.88 20.5425 5.76C20.5425 4.21333 21.0492 3.01333 22.0625 2.16C23.1292 1.30666 24.3825 0.879996 25.8225 0.879996C27.5825 0.879996 29.0758 1.46666 30.3025 2.64C31.5825 3.81333 32.2225 5.46666 32.2225 7.6C32.2225 11.3333 30.9692 14.64 28.4625 17.52C25.9558 20.4 22.1158 22.3733 16.9425 23.44ZM0.7025 23.44L1.1825 19.84C3.9025 19.2533 5.95583 18.4 7.3425 17.28C8.72917 16.1067 9.4225 14.72 9.4225 13.12C9.4225 12.3733 9.15583 11.7867 8.6225 11.36C8.08917 10.88 7.5025 10.4267 6.8625 10C6.2225 9.52 5.63583 8.98667 5.1025 8.4C4.6225 7.76 4.3825 6.88 4.3825 5.76C4.3825 4.21333 4.88917 3.01333 5.9025 2.16C6.96917 1.30666 8.2225 0.879996 9.6625 0.879996C11.4225 0.879996 12.9158 1.46666 14.1425 2.64C15.4225 3.81333 16.0625 5.46666 16.0625 7.6C16.0625 11.3333 14.8092 14.64 12.3025 17.52C9.79583 20.4 5.92917 22.3733 0.7025 23.44Z" fill="black"/>
</svg>
